<svg width="55" height="40" viewBox="0 0 55 40" fill="none" xmlns="http://www.w3.org/2000/svg">
<path d="M13 38C13 39.1046 13.8954 40 15 40C16.1046 40 17 39.1046 17 38L13 38ZM16.4142 0.585785C15.6332 -0.195263 14.3668 -0.195263 13.5858 0.585785L0.857863 13.3137C0.0768145 14.0948 0.0768146 15.3611 0.857863 16.1421C1.63891 16.9232 2.90524 16.9232 3.68629 16.1421L15 4.82843L26.3137 16.1421C27.0948 16.9232 28.3611 16.9232 29.1421 16.1421C29.9232 15.3611 29.9232 14.0948 29.1421 13.3137L16.4142 0.585785ZM17 38L17 2L13 2L13 38L17 38Z" fill="black"/>
<path d="M42 2C42 0.89543 41.1046 0 40 0C38.8954 0 38 0.89543 38 2L42 2ZM38.5858 39.4142C39.3668 40.1953 40.6332 40.1953 41.4142 39.4142L54.1421 26.6863C54.9232 25.9052 54.9232 24.6389 54.1421 23.8579C53.3611 23.0768 52.0948 23.0768 51.3137 23.8579L40 35.1716L28.6863 23.8579C27.9052 23.0768 26.6389 23.0768 25.8579 23.8579C25.0768 24.6389 25.0768 25.9052 25.8579 26.6863L38.5858 39.4142ZM38 2L38 38H42L42 2L38 2Z" fill="black"/>
</svg>
